<?xml version="1.0" encoding="UTF-8" standalone="no"?>
<svg xmlns:dc="http://purl.org/dc/elements/1.1/" xmlns:cc="http://creativecommons.org/ns#" xmlns:rdf="http://www.w3.org/1999/02/22-rdf-syntax-ns#" xmlns:svg="http://www.w3.org/2000/svg" xmlns="http://www.w3.org/2000/svg" xmlns:sodipodi="http://sodipodi.sourceforge.net/DTD/sodipodi-0.dtd" xmlns:inkscape="http://www.inkscape.org/namespaces/inkscape" id="svg" version="1.1" width="500" height="500" style="display: block;" sodipodi:docname="image2vector.svg" inkscape:version="0.92.0 r">
  <metadata id="metadata13">
    <rdf:RDF>
      <cc:Work rdf:about="">
        <dc:format>image/svg+xml</dc:format>
        <dc:type rdf:resource="http://purl.org/dc/dcmitype/StillImage"/>
      </cc:Work>
    </rdf:RDF>
  </metadata>
  <defs id="defs11"/>
  <sodipodi:namedview pagecolor="#ffffff" bordercolor="#666666" borderopacity="1" objecttolerance="10" gridtolerance="10" guidetolerance="10" inkscape:pageopacity="0" inkscape:pageshadow="2" inkscape:window-width="1920" inkscape:window-height="1031" id="namedview9" showgrid="false" inkscape:snap-bbox="false" inkscape:bbox-nodes="true" inkscape:zoom="0.472" inkscape:cx="254.23729" inkscape:cy="250" inkscape:window-x="0" inkscape:window-y="0" inkscape:window-maximized="1" inkscape:current-layer="svg"/>
  <g id="svgg" transform="matrix(1.243836,0,0,1.2596377,-0.09241386,-0.04150207)">
    <path id="path0" d="m 144.533,0.533 c -0.293,0.294 -0.527,0.924 -0.521,1.4 0.008,0.518 0.266,0.467 0.644,-0.127 0.491,-0.774 12.887,-1.042 55.788,-1.206 L 255.6,0.389 200.333,0.194 c -30.396,-0.107 -55.506,0.046 -55.8,0.339 m -11.626,6.741 c -1.428,1.156 -1.572,1.526 -0.596,1.526 0.709,0 1.289,-0.334 1.289,-0.741 0,-0.408 0.63,-0.867 1.4,-1.019 0.77,-0.153 1.038,-0.506 0.596,-0.785 -0.442,-0.279 -1.652,0.18 -2.689,1.019 M 121.6,13.6 c -1.621,1.268 -1.735,1.568 -0.6,1.582 0.77,0.01 1.4,-0.342 1.4,-0.782 0,-0.44 0.741,-0.8 1.647,-0.8 0.906,0 1.425,-0.36 1.153,-0.8 -0.695,-1.125 -1.316,-0.987 -3.6,0.8 M 91.178,31.245 c -1.606,1.233 -1.714,1.523 -0.578,1.537 0.77,0.01 1.4,-0.316 1.4,-0.723 0,-0.408 0.63,-0.867 1.4,-1.019 0.792,-0.157 1.043,-0.503 0.578,-0.796 -0.453,-0.285 -1.713,0.165 -2.8,1.001 M 61.577,48.428 c -0.553,0.666 -0.774,1.442 -0.491,1.725 0.283,0.282 0.514,0.12 0.514,-0.361 0,-0.481 0.63,-1 1.4,-1.152 0.917,-0.182 1.086,-0.475 0.491,-0.85 -0.5,-0.315 -1.362,-0.028 -1.914,0.638 m -8.373,5.167 c -0.798,0.883 -1.19,1.605 -0.871,1.605 0.844,0 3.124,-2.41 2.691,-2.843 -0.202,-0.202 -1.021,0.355 -1.82,1.238 M 0.379,200 c 0,30.58 0.099,43.09 0.221,27.8 0.121,-15.29 0.121,-40.31 0,-55.6 C 0.478,156.91 0.379,169.42 0.379,200" inkscape:connector-curvature="0" style="fill:#ffffff;fill-rule:evenodd;stroke:none"/>
    <path id="path1" d="m 194.4,58.389 c -1.1,0.365 -4.285,1.315 -7.077,2.112 -2.792,0.796 -4.72,1.567 -4.284,1.712 0.436,0.145 4.134,-0.697 8.219,-1.873 12.181,-3.504 19.405,-1.834 24.5,5.665 4.725,6.952 2.522,18.415 -4.422,23.01 -2.683,1.776 -62.54,19.164 -72.209,20.977 C 129.636,111.771 120,103.414 120,93.404 120,82.41 124.967,78.288 143.863,73.601 146.668,72.905 148.149,72 146.484,72 c -6.973,0 -21.314,6.553 -24.336,11.12 -10.998,16.619 4.6,32.695 25.452,26.231 4.387,-1.36 8.352,-2.487 21.6,-6.144 10.244,-2.827 14.28,-3.955 17.6,-4.922 1.32,-0.384 6.875,-1.951 12.344,-3.483 15.354,-4.299 20.256,-8.916 20.256,-19.079 0,-12.952 -12.361,-21.523 -25,-17.334 M 177.6,63.2 c -0.994,0.642 -0.925,0.775 0.4,0.775 0.88,0 2.14,-0.348 2.8,-0.775 0.994,-0.642 0.925,-0.775 -0.4,-0.775 -0.88,0 -2.14,0.348 -2.8,0.775 m -14.8,3.988 c -5.72,1.667 -11.432,3.269 -12.694,3.56 -1.262,0.291 -2.079,0.745 -1.816,1.008 0.46,0.46 14.564,-3.234 23.71,-6.21 8.092,-2.633 1.331,-1.426 -9.2,1.642 m 96.8,22.12 c -0.88,0.229 -4.12,1.119 -7.2,1.978 -3.08,0.859 -7.4,2.062 -9.6,2.675 -2.2,0.612 -5.98,1.673 -8.4,2.358 -2.42,0.685 -8.36,2.338 -13.2,3.674 -4.84,1.335 -10.06,2.78 -11.6,3.21 -1.54,0.43 -8.02,2.232 -14.4,4.004 -6.38,1.772 -13.94,3.895 -16.8,4.719 -11.012,3.172 -34.302,9.622 -42.8,11.853 -8.833,2.32 -14.61,7.525 -16.254,14.643 -3.166,13.717 10.197,25.179 24.335,20.871 1.275,-0.388 3.759,-1.105 5.519,-1.592 8.232,-2.278 26.69,-7.397 29.2,-8.098 1.54,-0.43 6.76,-1.871 11.6,-3.203 9.611,-2.644 13.92,-3.847 17.6,-4.91 1.32,-0.381 6.36,-1.78 11.2,-3.109 4.84,-1.328 11.32,-3.135 14.4,-4.015 3.08,-0.88 6.68,-1.908 8,-2.286 1.32,-0.377 7.98,-2.196 14.8,-4.042 19.59,-5.303 23.834,-8.109 26.34,-17.417 3.311,-12.295 -9.883,-24.661 -22.74,-21.313 m 12.032,1.991 c 12.394,5.826 13.048,24.435 1.059,30.128 -1.92,0.912 -28.331,8.546 -58.691,16.966 -30.36,8.42 -59.569,16.546 -64.91,18.058 -10.919,3.092 -13.016,3.269 -17.978,1.518 -11.088,-3.912 -14.809,-18.357 -6.922,-26.867 3.796,-4.095 3.336,-3.929 37.41,-13.5 1.54,-0.433 8.02,-2.237 14.4,-4.009 6.38,-1.772 13.94,-3.895 16.8,-4.717 2.86,-0.823 12.04,-3.384 20.4,-5.692 30.549,-8.431 45.29,-12.55 47.2,-13.19 2.487,-0.832 8.063,-0.184 11.232,1.305 M 250,140.839 c -6.16,1.734 -12.46,3.509 -14,3.946 -1.54,0.436 -6.76,1.886 -11.6,3.222 -4.84,1.335 -11.32,3.153 -14.4,4.039 -3.08,0.887 -6.86,1.955 -8.4,2.375 -6.287,1.714 -26.37,7.313 -31.6,8.81 -3.08,0.881 -6.68,1.911 -8,2.289 -1.32,0.377 -7.98,2.207 -14.8,4.066 -21.278,5.8 -24.92,8.04 -27.569,16.959 -3.804,12.808 10.235,26.978 22.131,22.338 1.011,-0.394 3.278,-1.109 5.038,-1.589 2.897,-0.79 15.881,-4.359 24,-6.597 1.76,-0.486 4.1,-1.159 5.2,-1.497 2.036,-0.625 3.773,-1.108 14.4,-4 3.3,-0.898 7.26,-1.981 8.8,-2.406 1.54,-0.425 6.76,-1.865 11.6,-3.201 4.84,-1.335 11.32,-3.153 14.4,-4.039 3.08,-0.887 6.86,-1.955 8.4,-2.375 2.558,-0.698 21.52,-5.948 29.2,-8.085 9.058,-2.52 10.887,-3.37 14.296,-6.636 9.059,-8.679 6.825,-23.166 -4.437,-28.778 -5.645,-2.814 -9.184,-2.633 -22.659,1.159 m 23.6,0.614 c 7.667,4.589 10.013,14.806 5.261,22.915 -3.585,6.117 -1.331,5.332 -70.461,24.541 -7.92,2.201 -20.88,5.803 -28.8,8.004 -7.92,2.201 -19.62,5.482 -26,7.29 -17.368,4.922 -21.727,4.846 -27.794,-0.481 -11.167,-9.805 -6.09,-25.413 9.697,-29.81 8.061,-2.246 9.916,-2.764 26.897,-7.512 9.46,-2.645 18.46,-5.16 20,-5.588 1.54,-0.429 5.32,-1.491 8.4,-2.362 3.08,-0.87 7.58,-2.112 10,-2.759 2.42,-0.648 9.08,-2.484 14.8,-4.082 5.72,-1.597 12.38,-3.454 14.8,-4.126 2.42,-0.673 6.74,-1.879 9.6,-2.681 7.352,-2.061 17.572,-4.893 20.4,-5.653 3.762,-1.011 9.268,-0.05 13.2,2.304 M 256,188.564 c -1.98,0.64 -5.4,1.668 -7.6,2.284 -5.99,1.68 -26.797,7.458 -30,8.331 -1.54,0.42 -5.32,1.49 -8.4,2.378 -3.08,0.888 -10.82,3.064 -17.2,4.836 -6.38,1.772 -12.86,3.574 -14.4,4.004 -1.54,0.43 -6.76,1.866 -11.6,3.191 -4.84,1.325 -9.88,2.726 -11.2,3.113 -1.32,0.388 -7.967,2.261 -14.771,4.164 -14.887,4.163 -18.806,6.996 -21.214,15.335 -3.194,11.059 6.235,23 18.162,23 5.512,0 16.11,5.025 20.223,9.589 1.496,1.661 1.626,3.211 2,23.893 l 0.4,22.118 h 40.4 40.4 l 0.213,-21.962 c 0.209,-21.476 0.253,-22.005 2,-23.885 4.348,-4.678 9.178,-7.015 22.038,-10.664 11.72,-3.325 11.68,-12.729 -0.103,-24.056 -4.444,-4.272 -7.915,-7.905 -7.714,-8.072 0.201,-0.167 2.706,-0.936 5.566,-1.708 6.394,-1.726 11.078,-3.759 13.238,-5.746 15.627,-14.375 0.378,-36.865 -20.438,-30.143 m 15.6,1.33 c 16.138,7.58 12.319,27.527 -6.225,32.512 -10.779,2.898 -11.041,3.237 -5.991,7.762 11.559,10.356 12.761,11.772 13.185,15.539 0.793,7.033 -2.169,10.135 -12.103,12.676 -7.074,1.809 -13.267,5.074 -17.053,8.99 l -2.586,2.676 -0.214,21.575 -0.213,21.576 -39.8,0.207 -39.8,0.208 v -21.906 -21.905 l -3.434,-3.165 c -4.209,-3.881 -11.202,-7.279 -17.237,-8.378 -11.719,-2.133 -15.831,-4.476 -18.615,-10.604 -5.932,-13.062 0.639,-20.633 23.286,-26.831 10.226,-2.798 29.57,-8.184 43.2,-12.027 1.54,-0.434 10.54,-2.954 20,-5.599 9.46,-2.645 18.46,-5.165 20,-5.599 18.457,-5.204 31.096,-8.73 32.4,-9.038 3.71,-0.876 7.446,-0.432 11.2,1.331 m -46,43.508 c -0.66,0.261 -13.063,3.781 -27.562,7.822 -14.499,4.041 -26.501,7.764 -26.67,8.273 -0.17,0.509 1.44,2.839 3.578,5.178 2.138,2.339 4.78,6.024 5.871,8.189 3.616,7.178 2.347,6.736 19.36,6.736 17.273,0 17.249,0.007 20.208,-6.041 2.69,-5.498 10.477,-13.982 16.186,-17.634 5.273,-3.373 5.284,-3.263 -0.86,-8.657 -4.924,-4.324 -6.976,-5.108 -10.111,-3.866 m 8.863,4.318 c 5.639,4.904 5.599,4.697 1.43,7.456 -6.621,4.381 -16.693,15.643 -16.693,18.663 0,3.908 -2.942,4.571 -19.219,4.329 l -15.618,-0.231 -1.122,-2.569 c -1.721,-3.943 -4.853,-8.657 -7.94,-11.953 -1.539,-1.642 -2.578,-3.204 -2.311,-3.472 0.519,-0.519 7.536,-2.563 31.41,-9.15 12.194,-3.364 19.644,-5.506 22,-6.327 1.1,-0.382 2.298,-0.734 2.663,-0.781 0.365,-0.047 2.795,1.769 5.4,4.035 M 179,328.551 c -1.194,0.312 -1.4,1.36 -1.4,7.108 v 6.741 h 23.2 23.2 v -6.707 c 0,-6.279 -0.115,-6.737 -1.8,-7.189 -2.058,-0.551 -41.072,-0.509 -43.2,0.047 m 43.851,6.849 -0.17,5.8 -22.141,0.213 -22.14,0.212 v -6.012 -6.013 h 22.31 22.311 l -0.17,5.8" inkscape:connector-curvature="0" style="fill:#b18e1a;fill-rule:evenodd;stroke:none"/>
    <path id="path2" d="m 194.8,59.234 c -1.32,0.435 -4.92,1.482 -8,2.326 -5.368,1.47 -11.048,3.053 -23.2,6.465 -7.298,2.049 -16.971,4.747 -20,5.578 -1.32,0.362 -4.481,1.228 -7.024,1.924 C 124.905,78.721 120,84.01 120,93.404 c 0,10.01 9.636,18.367 19.127,16.588 9.669,-1.813 69.526,-19.201 72.209,-20.977 16.261,-10.761 2.257,-35.983 -16.536,-29.781 m 65.6,30.76 c -1.91,0.64 -16.651,4.759 -47.2,13.19 -8.36,2.308 -17.54,4.869 -20.4,5.692 -2.86,0.822 -10.42,2.945 -16.8,4.717 -13.518,3.755 -12.909,3.584 -31.6,8.859 -22.576,6.371 -28.897,13.759 -22.883,26.748 4.528,9.78 11.845,11.704 27.573,7.251 5.341,-1.512 34.55,-9.638 64.91,-18.058 60.737,-16.844 61.141,-16.983 64.457,-22.212 8.234,-12.984 -4.093,-30.861 -18.057,-26.187 m 0,49.155 c -2.828,0.76 -13.048,3.592 -20.4,5.653 -2.86,0.802 -7.18,2.008 -9.6,2.681 -2.42,0.672 -9.08,2.529 -14.8,4.126 -5.72,1.598 -12.38,3.434 -14.8,4.082 -2.42,0.647 -6.92,1.889 -10,2.759 -3.08,0.871 -6.86,1.933 -8.4,2.362 -1.54,0.428 -10.54,2.943 -20,5.588 -16.981,4.748 -18.836,5.266 -26.897,7.512 -15.787,4.397 -20.864,20.005 -9.697,29.81 6.067,5.327 10.426,5.403 27.794,0.481 6.38,-1.808 18.08,-5.089 26,-7.29 7.92,-2.201 20.88,-5.803 28.8,-8.004 69.13,-19.209 66.876,-18.424 70.461,-24.541 7.584,-12.941 -4.206,-29.048 -18.461,-25.219 m 0,49.414 c -1.304,0.308 -13.943,3.834 -32.4,9.038 -1.54,0.434 -10.54,2.954 -20,5.599 -9.46,2.645 -18.46,5.165 -20,5.599 -13.63,3.843 -32.974,9.229 -43.2,12.027 -22.647,6.198 -29.218,13.769 -23.286,26.831 2.784,6.128 6.896,8.471 18.615,10.604 6.035,1.099 13.028,4.497 17.237,8.378 l 3.434,3.165 v 21.905 21.906 l 39.8,-0.208 39.8,-0.207 0.213,-21.576 0.214,-21.575 2.586,-2.676 c 3.786,-3.916 9.979,-7.181 17.053,-8.99 9.934,-2.541 12.896,-5.643 12.103,-12.676 -0.424,-3.767 -1.626,-5.183 -13.185,-15.539 -5.05,-4.525 -4.788,-4.864 5.991,-7.762 10.179,-2.737 14.966,-7.49 15.955,-15.844 1.319,-11.138 -9.733,-20.643 -20.93,-17.999 m -24.689,48.705 c 6.144,5.394 6.133,5.284 0.86,8.657 -5.709,3.652 -13.496,12.136 -16.186,17.634 -2.959,6.048 -2.935,6.041 -20.208,6.041 -17.013,0 -15.744,0.442 -19.36,-6.736 -1.091,-2.165 -3.733,-5.85 -5.871,-8.189 -2.138,-2.339 -3.748,-4.669 -3.578,-5.178 0.169,-0.509 12.171,-4.232 26.67,-8.273 14.499,-4.041 26.902,-7.561 27.562,-7.822 3.135,-1.242 5.187,-0.458 10.111,3.866 M 178.4,335.613 v 6.012 l 22.14,-0.212 22.141,-0.213 0.17,-5.8 0.17,-5.8 H 200.71 178.4 v 6.013" inkscape:connector-curvature="0" style="fill:#ffb400;fill-rule:evenodd;stroke:none"/>
    <path id="path3" d="m 219.589,78.885 c -2.562,8.651 -7.074,12.173 -20.389,15.916 -13.605,3.824 -16.015,4.504 -18.8,5.309 -1.32,0.381 -6.36,1.781 -11.2,3.11 -12.829,3.522 -17.122,4.742 -21.6,6.138 -6.149,1.916 -13.851,2.26 -17.402,0.776 -4.058,-1.695 -3.8,-0.483 0.402,1.895 4.821,2.728 10.018,2.489 22.2,-1.022 5.5,-1.586 20.531,-5.838 33.403,-9.45 28.7,-8.055 32.57,-10.326 34.218,-20.081 0.561,-3.319 -0.051,-5.225 -0.832,-2.591 m 62.565,32.638 c -2.316,8.327 -7.126,11.364 -26.154,16.515 -6.82,1.846 -13.48,3.665 -14.8,4.042 -1.32,0.378 -4.92,1.406 -8,2.286 -3.08,0.88 -9.56,2.692 -14.4,4.027 -9.839,2.715 -14.068,3.896 -17.6,4.917 -1.32,0.381 -6.36,1.777 -11.2,3.102 -4.84,1.325 -10.06,2.761 -11.6,3.191 -2.51,0.701 -20.968,5.82 -29.2,8.098 -1.76,0.487 -4.244,1.204 -5.519,1.592 -4.189,1.277 -11.503,0.83 -14.913,-0.909 -3.278,-1.673 -4.217,-1.147 -1.768,0.989 6.581,5.741 10.962,5.491 36.764,-2.096 14.563,-4.282 36.858,-10.555 82.636,-23.252 33.339,-9.246 37.49,-11.725 36.645,-21.881 l -0.245,-2.944 -0.646,2.323 M 283.105,158 c -0.272,0.44 -0.955,2.225 -1.517,3.967 -0.58,1.795 -2.553,4.633 -4.556,6.552 -3.34,3.201 -5.209,4.064 -14.232,6.575 -7.68,2.137 -26.642,7.387 -29.2,8.085 -1.54,0.42 -5.32,1.488 -8.4,2.375 -3.08,0.886 -9.56,2.704 -14.4,4.039 -4.84,1.336 -10.06,2.776 -11.6,3.201 -1.54,0.425 -5.5,1.508 -8.8,2.406 -10.627,2.892 -12.364,3.375 -14.4,4 -1.1,0.338 -3.44,1.011 -5.2,1.497 -1.76,0.485 -7.16,1.971 -12,3.303 -4.84,1.332 -10.24,2.818 -12,3.303 -1.76,0.486 -4.196,1.247 -5.413,1.692 -3.053,1.117 -8.648,0.351 -12.64,-1.729 -3.918,-2.042 -4.804,-1.744 -2.2,0.741 5.739,5.477 10.693,5.795 25.685,1.651 6.253,-1.729 18.028,-4.985 26.168,-7.238 8.14,-2.252 20.74,-5.852 28,-7.999 7.26,-2.148 22.56,-6.481 34,-9.631 33.63,-9.257 33.701,-9.282 37.626,-12.9 3.795,-3.497 6.256,-8.714 5.838,-12.374 -0.145,-1.274 -0.487,-1.956 -0.759,-1.516 m -0.712,50.827 c -2.324,8.63 -7.623,12.752 -20.593,16.018 -4.5,1.133 -4.905,1.574 -2.945,3.201 1.044,0.866 2.294,0.738 7.4,-0.756 11.238,-3.287 15.913,-7.387 17.72,-15.536 1.19,-5.368 -0.222,-7.979 -1.582,-2.927 M 226.4,234.466 c -2.356,0.821 -9.806,2.963 -22,6.327 -24.273,6.697 -30.893,8.633 -31.461,9.201 -0.63,0.63 2.24,2.913 3.041,2.418 0.3,-0.185 7.537,-2.135 16.083,-4.334 8.545,-2.198 19.857,-5.228 25.137,-6.733 14.598,-4.161 14.131,-4.113 16.842,-1.73 2.964,2.606 5.158,3.854 5.158,2.933 0,-0.895 -9.244,-8.978 -10.137,-8.863 -0.365,0.047 -1.563,0.399 -2.663,0.781 m 47.676,14.791 c -0.297,1.351 -1.576,3.714 -2.843,5.25 -2.225,2.7 -3.366,3.223 -12.033,5.521 -5.515,1.462 -9.984,3.804 -13.995,7.335 l -3.649,3.212 0.07,21.511 c 0.039,11.831 -0.153,21.872 -0.425,22.313 -0.32,0.517 -14.351,0.801 -39.601,0.801 -35.944,0 -41.945,0.303 -39.227,1.984 1.037,0.64 79.005,0.648 80.041,0.008 0.482,-0.298 0.788,-8.442 0.791,-21.039 0.005,-18.294 0.161,-20.788 1.418,-22.694 3.158,-4.789 11.4,-9.067 21.962,-11.4 5.448,-1.203 10.462,-8.774 8.781,-13.259 l -0.75,-2 -0.54,2.457 m -148,7.659 c 2.123,2.391 7.124,4.476 12.324,5.14 5.087,0.65 12.255,3.109 15.323,5.257 2.387,1.671 3.077,1.834 3.077,0.725 0,-2.465 -13.813,-8.819 -19.253,-8.857 -1.511,-0.01 -4.907,-0.909 -7.547,-1.996 -5.831,-2.402 -5.818,-2.401 -3.924,-0.269 m 98.472,78.091 c -0.358,0.554 -0.424,1.724 -0.146,2.6 1.523,4.797 1.541,4.793 -22.323,4.793 -21.948,0 -23.606,0.16 -21.974,2.126 1.346,1.622 43.29,1.567 44.639,-0.059 0.554,-0.667 0.841,-3.047 0.698,-5.8 -0.144,-2.772 -0.507,-4.258 -0.894,-3.66" inkscape:connector-curvature="0" style="fill:#074d6c;fill-rule:evenodd;stroke:none"/>
    <path id="path4" d="m 144.8,1.6 c 0,0.44 -0.72,0.8 -1.6,0.8 -0.88,0 -1.603,0.27 -1.606,0.6 -0.008,0.73 -3.892,2.6 -5.401,2.6 -0.598,0 -0.865,0.36 -0.593,0.8 0.272,0.44 -0.067,0.8 -0.753,0.8 -0.686,0 -1.247,0.36 -1.247,0.8 0,0.44 -0.72,0.8 -1.6,0.8 -0.88,0 -1.6,0.36 -1.6,0.8 0,0.44 -0.54,0.8 -1.2,0.8 -0.66,0 -1.2,0.36 -1.2,0.8 0,0.44 -0.741,0.8 -1.647,0.8 -0.906,0 -1.425,0.36 -1.153,0.8 0.272,0.44 -0.247,0.8 -1.153,0.8 -0.906,0 -1.647,0.36 -1.647,0.8 0,0.44 -0.72,0.8 -1.6,0.8 -0.88,0 -1.6,0.36 -1.6,0.8 0,0.44 -0.54,0.8 -1.2,0.8 -0.66,0 -1.2,0.36 -1.2,0.8 0,0.44 -0.99,0.806 -2.2,0.812 -1.714,0.01 -1.935,0.184 -1,0.788 0.97,0.627 0.856,0.778 -0.6,0.788 -0.99,0.006 -1.8,0.372 -1.8,0.812 0,0.44 -0.72,0.8 -1.6,0.8 -0.88,0 -1.6,0.36 -1.6,0.8 0,0.44 -0.741,0.8 -1.647,0.8 -0.906,0 -1.463,0.299 -1.236,0.665 0.226,0.366 -0.833,1.153 -2.353,1.749 -1.52,0.597 -2.764,1.377 -2.764,1.735 0,0.358 -0.741,0.651 -1.647,0.651 -0.906,0 -1.425,0.36 -1.153,0.8 0.282,0.456 -0.407,0.8 -1.6,0.8 -1.193,0 -1.882,0.344 -1.6,0.8 0.272,0.44 -0.067,0.8 -0.753,0.8 C 92.561,31.2 92,31.56 92,32 c 0,0.44 -0.72,0.8 -1.6,0.8 -0.88,0 -1.6,0.36 -1.6,0.8 0,0.44 -0.741,0.8 -1.647,0.8 -0.906,0 -1.425,0.36 -1.153,0.8 0.282,0.456 -0.407,0.8 -1.6,0.8 -1.193,0 -1.882,0.344 -1.6,0.8 0.272,0.44 -0.268,0.8 -1.2,0.8 -0.932,0 -1.472,0.36 -1.2,0.8 0.272,0.44 -0.247,0.8 -1.153,0.8 -0.906,0 -1.647,0.36 -1.647,0.8 0,0.44 -0.54,0.8 -1.2,0.8 -0.66,0 -1.2,0.36 -1.2,0.8 0,0.44 -0.72,0.8 -1.6,0.8 -0.88,0 -1.6,0.36 -1.6,0.8 0,0.44 -0.54,0.8 -1.2,0.8 -0.66,0 -1.203,0.27 -1.206,0.6 -0.008,0.73 -3.892,2.6 -5.401,2.6 -0.598,0 -0.865,0.36 -0.593,0.8 0.272,0.44 -0.067,0.8 -0.753,0.8 -0.686,0 -1.247,0.36 -1.247,0.8 0,0.44 -0.72,0.8 -1.6,0.8 -0.88,0 -1.6,0.36 -1.6,0.8 0,0.44 -0.556,0.8 -1.236,0.8 C 55.753,52 52,55.487 52,56.797 c 0,0.478 -0.72,1.643 -1.6,2.587 -0.88,0.945 -1.6,2.19 -1.6,2.767 0,0.577 -0.36,1.049 -0.8,1.049 -0.44,0 -0.8,0.72 -0.8,1.6 0,0.88 -0.36,1.6 -0.8,1.6 -0.44,0 -0.8,0.555 -0.8,1.233 0,0.679 -0.72,2.007 -1.6,2.951 -0.88,0.945 -1.6,2.19 -1.6,2.767 0,0.577 -0.36,1.049 -0.8,1.049 -0.44,0 -0.8,0.555 -0.8,1.233 0,0.679 -0.72,2.007 -1.6,2.951 -0.88,0.945 -1.6,2.19 -1.6,2.767 0,0.577 -0.36,1.049 -0.8,1.049 -0.44,0 -0.8,0.72 -0.8,1.6 0,0.88 -0.36,1.6 -0.8,1.6 -0.44,0 -0.8,0.72 -0.8,1.6 0,0.88 -0.36,1.6 -0.8,1.6 -0.44,0 -0.8,0.54 -0.8,1.2 0,0.66 -0.36,1.2 -0.8,1.2 -0.44,0 -0.8,0.54 -0.8,1.2 0,0.66 -0.36,1.2 -0.8,1.2 -0.44,0 -0.8,0.72 -0.8,1.6 0,0.88 -0.36,1.6 -0.8,1.6 -0.44,0 -0.8,0.555 -0.8,1.233 0,0.679 -0.72,2.007 -1.6,2.951 -0.88,0.945 -1.6,2.19 -1.6,2.767 0,0.577 -0.36,1.049 -0.8,1.049 -0.44,0 -0.8,0.72 -0.8,1.6 0,0.88 -0.36,1.6 -0.8,1.6 -0.44,0 -0.8,0.741 -0.8,1.647 0,0.906 -0.36,1.425 -0.8,1.153 -0.44,-0.272 -0.8,0.067 -0.8,0.753 0,0.686 -0.36,1.247 -0.8,1.247 -0.44,0 -0.8,0.72 -0.8,1.6 0,0.88 -0.36,1.6 -0.8,1.6 -0.44,0 -0.8,0.555 -0.8,1.233 0,0.679 -0.72,2.007 -1.6,2.951 -0.88,0.945 -1.6,2.19 -1.6,2.767 0,0.577 -0.36,1.049 -0.8,1.049 -0.44,0 -0.8,0.72 -0.8,1.6 0,0.88 -0.36,1.6 -0.8,1.6 -0.44,0 -0.8,0.72 -0.8,1.6 0,0.88 -0.36,1.6 -0.8,1.6 -0.44,0 -0.8,0.54 -0.8,1.2 0,0.66 -0.36,1.2 -0.8,1.2 -0.44,0 -0.8,0.54 -0.8,1.2 0,0.66 -0.36,1.2 -0.8,1.2 -0.44,0 -0.8,0.72 -0.8,1.6 0,0.88 -0.36,1.6 -0.8,1.6 -0.44,0 -0.8,0.555 -0.8,1.233 0,0.679 -0.72,2.007 -1.6,2.951 -2.513,2.697 -2.513,113.942 0,116.216 0.88,0.796 1.6,1.947 1.6,2.557 0,0.611 0.72,1.883 1.6,2.827 0.88,0.945 1.6,2.302 1.6,3.016 0,0.714 0.72,2.071 1.6,3.016 0.88,0.944 1.6,2.272 1.6,2.951 0,0.678 0.36,1.233 0.8,1.233 0.44,0 0.8,0.385 0.8,0.856 0,0.471 1.08,2.425 2.4,4.344 1.32,1.919 2.4,4.053 2.4,4.744 0,0.691 0.318,1.256 0.707,1.256 0.388,0 0.906,0.63 1.15,1.4 0.594,1.872 3.192,6.133 3.943,6.467 0.33,0.146 0.6,0.956 0.6,1.8 0,0.843 0.36,1.533 0.8,1.533 0.44,0 0.8,0.472 0.8,1.049 0,0.577 0.72,1.822 1.6,2.767 0.88,0.944 1.6,2.242 1.6,2.884 0,0.642 0.27,1.287 0.6,1.433 0.33,0.147 1.467,1.977 2.526,4.067 1.059,2.09 2.229,3.8 2.6,3.8 0.371,0 0.674,0.69 0.674,1.533 0,0.844 0.27,1.654 0.6,1.8 0.751,0.334 3.349,4.595 3.943,6.467 0.244,0.77 0.762,1.4 1.15,1.4 0.389,0 0.707,0.72 0.707,1.6 0,0.88 0.36,1.6 0.8,1.6 0.44,0 0.8,0.472 0.8,1.049 0,0.577 0.72,1.822 1.6,2.767 0.88,0.944 1.6,2.242 1.6,2.884 0,0.642 0.27,1.287 0.6,1.433 0.33,0.147 1.467,1.977 2.526,4.067 1.059,2.09 2.229,3.8 2.6,3.8 0.371,0 0.674,0.556 0.674,1.236 0,1.601 3.563,5.164 5.164,5.164 0.68,0 1.236,0.303 1.236,0.674 0,0.371 1.71,1.541 3.8,2.6 2.09,1.059 3.92,2.196 4.067,2.526 0.146,0.33 0.791,0.6 1.433,0.6 0.642,0 1.94,0.72 2.884,1.6 0.945,0.88 2.19,1.6 2.767,1.6 0.577,0 1.049,0.36 1.049,0.8 0,0.44 0.69,0.8 1.533,0.8 0.844,0 1.654,0.27 1.8,0.6 0.334,0.751 4.595,3.349 6.467,3.943 0.77,0.244 1.4,0.762 1.4,1.15 0,0.389 0.72,0.707 1.6,0.707 0.88,0 1.6,0.303 1.6,0.674 0,0.371 1.71,1.541 3.8,2.6 2.09,1.059 3.92,2.196 4.067,2.526 0.146,0.33 0.956,0.6 1.8,0.6 0.843,0 1.533,0.303 1.533,0.674 0,0.371 1.71,1.541 3.8,2.6 2.09,1.059 3.92,2.196 4.067,2.526 0.146,0.33 0.791,0.6 1.433,0.6 0.642,0 1.94,0.72 2.884,1.6 0.945,0.88 2.19,1.6 2.767,1.6 0.577,0 1.049,0.36 1.049,0.8 0,0.44 0.69,0.8 1.533,0.8 0.844,0 1.654,0.27 1.8,0.6 0.334,0.751 4.595,3.349 6.467,3.943 0.77,0.244 1.4,0.762 1.4,1.15 0,0.389 0.72,0.707 1.6,0.707 0.88,0 1.6,0.303 1.6,0.674 0,0.371 1.71,1.536 3.8,2.589 2.09,1.054 3.98,2.1 4.2,2.326 3.146,3.231 2.747,3.211 62.666,3.211 49.795,0 57.375,-0.156 58.42,-1.2 0.66,-0.66 1.735,-1.2 2.39,-1.2 0.655,0 1.311,-0.27 1.457,-0.6 0.147,-0.33 1.977,-1.467 4.067,-2.526 2.09,-1.059 3.8,-2.229 3.8,-2.6 0,-0.371 0.69,-0.674 1.533,-0.674 0.844,0 1.654,-0.27 1.8,-0.6 0.334,-0.751 4.595,-3.349 6.467,-3.943 0.77,-0.244 1.4,-0.762 1.4,-1.15 0,-0.389 0.72,-0.707 1.6,-0.707 0.88,0 1.6,-0.36 1.6,-0.8 0,-0.44 0.472,-0.8 1.049,-0.8 0.577,0 1.822,-0.72 2.767,-1.6 0.944,-0.88 2.242,-1.6 2.884,-1.6 0.642,0 1.287,-0.27 1.433,-0.6 0.147,-0.33 1.977,-1.467 4.067,-2.526 2.09,-1.059 3.8,-2.229 3.8,-2.6 0,-0.371 0.69,-0.674 1.533,-0.674 0.844,0 1.654,-0.27 1.8,-0.6 0.147,-0.33 1.977,-1.467 4.067,-2.526 2.09,-1.059 3.8,-2.229 3.8,-2.6 0,-0.371 0.69,-0.674 1.533,-0.674 0.844,0 1.654,-0.27 1.8,-0.6 0.334,-0.751 4.595,-3.349 6.467,-3.943 0.77,-0.244 1.4,-0.762 1.4,-1.15 0,-0.389 0.72,-0.707 1.6,-0.707 0.88,0 1.6,-0.36 1.6,-0.8 0,-0.44 0.472,-0.8 1.049,-0.8 0.577,0 1.822,-0.72 2.767,-1.6 0.944,-0.88 2.242,-1.6 2.884,-1.6 0.642,0 1.287,-0.27 1.433,-0.6 0.147,-0.33 1.977,-1.467 4.067,-2.526 2.09,-1.059 3.8,-2.229 3.8,-2.6 0,-0.371 0.556,-0.674 1.236,-0.674 0.68,0 2.12,-0.884 3.2,-1.964 1.08,-1.08 1.964,-2.52 1.964,-3.2 0,-0.68 0.303,-1.236 0.674,-1.236 0.371,0 1.536,-1.71 2.589,-3.8 1.054,-2.09 2.1,-3.98 2.326,-4.2 0.785,-0.764 3.312,-5.208 3.754,-6.6 0.244,-0.77 0.762,-1.4 1.15,-1.4 0.389,0 0.707,-0.72 0.707,-1.6 0,-0.88 0.36,-1.6 0.8,-1.6 0.44,0 0.8,-0.555 0.8,-1.233 0,-0.679 0.72,-2.007 1.6,-2.951 0.88,-0.945 1.6,-2.19 1.6,-2.767 0,-0.577 0.36,-1.049 0.8,-1.049 0.44,0 0.8,-0.69 0.8,-1.533 0,-0.844 0.27,-1.654 0.6,-1.8 0.751,-0.334 3.349,-4.595 3.943,-6.467 0.244,-0.77 0.762,-1.4 1.15,-1.4 0.389,0 0.707,-0.72 0.707,-1.6 0,-0.88 0.303,-1.6 0.674,-1.6 0.371,0 1.541,-1.71 2.6,-3.8 1.059,-2.09 2.196,-3.92 2.526,-4.067 0.33,-0.146 0.6,-0.791 0.6,-1.433 0,-0.642 0.72,-1.94 1.6,-2.884 0.88,-0.945 1.6,-2.19 1.6,-2.767 0,-0.577 0.36,-1.049 0.8,-1.049 0.44,0 0.8,-0.72 0.8,-1.6 0,-0.88 0.36,-1.6 0.8,-1.6 0.44,0 0.8,-0.555 0.8,-1.233 0,-0.679 0.72,-2.007 1.6,-2.951 0.88,-0.945 1.6,-2.19 1.6,-2.767 0,-0.577 0.36,-1.049 0.8,-1.049 0.44,0 0.8,-0.565 0.8,-1.256 0,-0.691 1.014,-2.761 2.253,-4.6 1.24,-1.839 2.869,-4.679 3.622,-6.31 0.752,-1.631 1.718,-3.183 2.146,-3.447 1.26,-0.779 1.043,-115.194 -0.221,-116.53 -0.908,-0.959 -3.444,-5.417 -5.719,-10.051 -0.485,-0.986 -1.151,-1.796 -1.481,-1.8 -0.33,-0.003 -0.6,-0.726 -0.6,-1.606 0,-0.88 -0.36,-1.6 -0.8,-1.6 -0.44,0 -0.8,-0.472 -0.8,-1.049 0,-0.577 -0.72,-1.822 -1.6,-2.767 -0.88,-0.944 -1.6,-2.272 -1.6,-2.951 0,-0.678 -0.36,-1.233 -0.8,-1.233 -0.44,0 -0.8,-0.72 -0.8,-1.6 0,-0.88 -0.36,-1.6 -0.8,-1.6 -0.44,0 -0.8,-0.472 -0.8,-1.049 0,-0.577 -0.72,-1.822 -1.6,-2.767 -0.88,-0.944 -1.6,-2.242 -1.6,-2.884 0,-0.642 -0.27,-1.287 -0.6,-1.433 -0.33,-0.147 -1.467,-1.977 -2.526,-4.067 -1.059,-2.09 -2.229,-3.8 -2.6,-3.8 -0.371,0 -0.674,-0.72 -0.674,-1.6 0,-0.88 -0.318,-1.6 -0.707,-1.6 -0.388,0 -0.906,-0.63 -1.15,-1.4 -0.594,-1.872 -3.192,-6.133 -3.943,-6.467 -0.33,-0.146 -0.6,-0.956 -0.6,-1.8 0,-0.843 -0.36,-1.533 -0.8,-1.533 -0.44,0 -0.8,-0.472 -0.8,-1.049 0,-0.577 -0.72,-1.822 -1.6,-2.767 -0.88,-0.944 -1.6,-2.272 -1.6,-2.951 0,-0.678 -0.27,-1.236 -0.6,-1.239 -0.33,-0.004 -0.996,-0.814 -1.481,-1.8 -1.696,-3.456 -4.723,-8.998 -5.13,-9.394 -0.226,-0.22 -1.272,-2.11 -2.326,-4.2 -1.053,-2.09 -2.218,-3.8 -2.589,-3.8 -0.371,0 -0.674,-0.556 -0.674,-1.236 0,-1.411 -3.487,-5.164 -4.797,-5.164 -0.478,0 -1.643,-0.72 -2.587,-1.6 -0.945,-0.88 -2.19,-1.6 -2.767,-1.6 -0.577,0 -1.049,-0.36 -1.049,-0.8 0,-0.44 -0.72,-0.8 -1.6,-0.8 -0.88,0 -1.6,-0.36 -1.6,-0.8 0,-0.44 -0.555,-0.8 -1.233,-0.8 -0.679,0 -2.007,-0.72 -2.951,-1.6 -0.945,-0.88 -2.19,-1.6 -2.767,-1.6 -0.577,0 -1.049,-0.36 -1.049,-0.8 0,-0.44 -0.69,-0.8 -1.533,-0.8 -0.844,0 -1.654,-0.27 -1.8,-0.6 -0.334,-0.751 -4.595,-3.349 -6.467,-3.943 -0.77,-0.244 -1.4,-0.762 -1.4,-1.15 0,-0.389 -0.555,-0.707 -1.233,-0.707 -0.679,0 -2.007,-0.72 -2.951,-1.6 -0.945,-0.88 -2.19,-1.6 -2.767,-1.6 -0.577,0 -1.049,-0.36 -1.049,-0.8 0,-0.44 -0.72,-0.8 -1.6,-0.8 -0.88,0 -1.6,-0.36 -1.6,-0.8 0,-0.44 -0.555,-0.8 -1.233,-0.8 -0.679,0 -2.007,-0.72 -2.951,-1.6 -0.945,-0.88 -2.19,-1.6 -2.767,-1.6 -0.577,0 -1.049,-0.36 -1.049,-0.8 0,-0.44 -0.72,-0.8 -1.6,-0.8 -0.88,0 -1.6,-0.36 -1.6,-0.8 0,-0.44 -0.555,-0.8 -1.233,-0.8 -0.679,0 -2.007,-0.72 -2.951,-1.6 -0.945,-0.88 -2.19,-1.6 -2.767,-1.6 -0.577,0 -1.049,-0.36 -1.049,-0.8 0,-0.44 -0.72,-0.8 -1.6,-0.8 -0.88,0 -1.6,-0.303 -1.6,-0.674 0,-0.371 -1.71,-1.541 -3.8,-2.6 -2.09,-1.059 -3.92,-2.196 -4.067,-2.526 -0.146,-0.33 -0.791,-0.6 -1.433,-0.6 -0.642,0 -1.94,-0.72 -2.884,-1.6 -0.945,-0.88 -2.19,-1.6 -2.767,-1.6 -0.577,0 -1.049,-0.36 -1.049,-0.8 0,-0.44 -0.72,-0.8 -1.6,-0.8 -0.88,0 -1.6,-0.36 -1.6,-0.8 C 263.2,4.36 262.645,4 261.967,4 261.288,4 259.96,3.28 259.016,2.4 257.067,0.584 144.8,-0.202 144.8,1.6 m 64.8,57.687 c 6.406,3.846 9.558,8.676 9.833,15.069 0.092,2.14 0.492,3.69 0.889,3.445 1.009,-0.623 -0.117,5.881 -1.471,8.5 -3.52,6.808 -5.141,7.538 -35.795,16.127 -14.221,3.985 -29.096,8.198 -33.056,9.363 -13.095,3.85 -18.755,2.645 -25.78,-5.49 -11.398,-13.201 -5.393,-26.848 14.18,-32.225 4.18,-1.148 8.86,-2.441 10.4,-2.874 3.928,-1.104 25.419,-7.059 28.8,-7.981 4.793,-1.307 14.704,-4.165 16.8,-4.846 4.16,-1.35 12.24,-0.865 15.2,0.912 m 64.596,32.273 c 10.366,6.86 12.281,24.447 3.471,31.861 -3.177,2.673 -5.443,3.442 -31.267,10.604 -45.778,12.697 -68.073,18.97 -82.636,23.252 -26.887,7.906 -33.454,7.942 -38.104,0.208 -0.693,-1.152 -2.2,-3.307 -3.35,-4.79 -8.278,-10.675 -1.704,-24.979 13.29,-28.916 8.498,-2.231 31.788,-8.681 42.8,-11.853 2.86,-0.824 10.42,-2.947 16.8,-4.719 6.38,-1.772 12.86,-3.574 14.4,-4.004 1.54,-0.43 6.76,-1.875 11.6,-3.21 4.84,-1.336 10.78,-2.989 13.2,-3.674 2.42,-0.685 6.2,-1.746 8.4,-2.358 2.2,-0.613 6.52,-1.816 9.6,-2.675 3.08,-0.859 6.32,-1.749 7.2,-1.978 4.007,-1.044 11.321,0.085 14.596,2.252 m -1.537,48.12 c 6.169,3.074 11.944,13.11 10.184,17.697 -0.234,0.608 -0.069,0.886 0.366,0.617 1.332,-0.823 0.858,4.582 -0.702,8.006 -3.647,8.009 -4.783,8.516 -42.107,18.79 -11.44,3.15 -26.74,7.483 -34,9.631 -7.26,2.147 -19.86,5.747 -28,7.999 -8.14,2.253 -19.915,5.509 -26.168,7.238 -15.38,4.251 -25.988,2.891 -26.919,-3.451 -0.091,-0.62 -1.27,-2.467 -2.621,-4.105 -7.449,-9.037 -3.373,-23.203 7.922,-27.532 2.302,-0.882 9.766,-3.125 16.586,-4.984 6.82,-1.859 13.48,-3.689 14.8,-4.066 1.32,-0.378 4.92,-1.408 8,-2.289 5.23,-1.497 25.313,-7.096 31.6,-8.81 1.54,-0.42 5.32,-1.488 8.4,-2.375 3.08,-0.886 9.56,-2.704 14.4,-4.039 4.84,-1.336 10.06,-2.786 11.6,-3.222 29.092,-8.25 30.074,-8.387 36.659,-5.105 m 0.123,49.511 c 4.363,2.211 8.523,7.451 9.345,11.771 0.276,1.451 0.994,3.618 1.596,4.815 3.892,7.743 -4.092,17.649 -17.3,21.466 l -6.382,1.844 6.579,6.456 c 11.76,11.54 11.743,23.916 -0.035,26.516 -10.562,2.333 -18.804,6.611 -21.962,11.4 -1.257,1.906 -1.413,4.4 -1.418,22.694 -0.003,12.597 -0.309,20.741 -0.791,21.039 -2.535,1.566 -81.414,0.425 -80.432,-1.163 0.225,-0.364 -0.129,-0.868 -0.787,-1.12 -1.019,-0.391 -1.195,-3.616 -1.195,-21.906 0,-21.719 -0.596,-26.212 -3.26,-24.566 -0.413,0.255 -1.738,-0.228 -2.945,-1.073 -3.132,-2.194 -10.263,-4.652 -15.395,-5.308 -5.97,-0.762 -17.739,-6.856 -13.241,-6.856 0.334,0 -0.501,-1.262 -1.855,-2.804 -11.043,-12.577 -3.827,-25.56 17.525,-31.531 6.804,-1.903 13.451,-3.776 14.771,-4.164 1.32,-0.387 6.36,-1.788 11.2,-3.113 4.84,-1.325 10.06,-2.761 11.6,-3.191 1.54,-0.43 8.02,-2.232 14.4,-4.004 6.38,-1.772 14.12,-3.948 17.2,-4.836 3.08,-0.888 6.86,-1.958 8.4,-2.378 3.203,-0.873 24.01,-6.651 30,-8.331 2.2,-0.616 5.62,-1.644 7.6,-2.284 5.921,-1.912 12.237,-1.676 16.782,0.627 M 229.2,238.003 c -4.817,1.668 -52.098,14.166 -53.822,14.227 -0.625,0.023 -0.297,0.839 0.846,2.103 2.303,2.549 5.524,7.614 7.017,11.035 l 1.122,2.569 15.618,0.231 c 16.277,0.242 19.219,-0.421 19.219,-4.329 0,-2.985 11.199,-15.457 16.906,-18.829 2.167,-1.28 3.016,-2.595 1.694,-2.623 -0.33,-0.007 -1.819,-1.087 -3.308,-2.4 -2.581,-2.274 -3.48,-2.611 -5.292,-1.984 m -7,90.501 c 1.481,0.397 1.8,1.042 1.8,3.637 0,1.898 0.318,2.957 0.8,2.659 1.166,-0.721 1.013,8.667 -0.16,9.84 -1.466,1.466 -43.313,1.359 -44.535,-0.114 -0.49,-0.59 -0.654,-1.31 -0.365,-1.6 0.29,-0.289 -0.073,-0.526 -0.807,-0.526 -2.051,0 -1.987,-13.312 0.067,-13.849 2.128,-0.556 41.142,-0.598 43.2,-0.047" inkscape:connector-curvature="0" style="fill:#1b8abc;fill-rule:evenodd;stroke:none"/>
  </g>
</svg>